<svg width="5159" height="2127" viewBox="0 0 5159 2127" fill="none" xmlns="http://www.w3.org/2000/svg">
<path d="M2026.9 1892.2H1684.48L1890.21 1191.95H1716.24L1430.42 2127H1088L1654.1 233.418H1996.53L1803.22 897.761H1977.2L2251.97 0H2594.39L2026.9 1892.2Z" fill="#E02041"/>
<path d="M2622 233.417H3275.09L3177.06 531.749H2880.19L2772.51 896.377H3070.74L2976.86 1190.57H2685.51L2570.91 1575.91H2888.48L2773.87 1890.82H2133.22L2622 233.417Z" fill="#E02041"/>
<path d="M3178.44 2127H2833.25L3384.16 233.417H4011.03C4085.58 233.417 4135.29 254.133 4161.52 296.95C4187.76 339.767 4191.9 388.108 4175.34 443.354L4009.64 1006.87C4001.35 1031.73 3986.16 1053.83 3962.7 1074.55C3939.22 1095.27 3906.09 1104.93 3863.29 1104.93C3889.51 1109.08 3911.61 1125.65 3929.57 1154.66C3947.51 1183.66 3947.51 1227.86 3929.57 1287.25L3751.45 1892.2H3407.64L3598.19 1241.67C3602.32 1227.86 3603.71 1215.43 3599.57 1203C3595.42 1190.57 3583 1185.04 3562.29 1185.04H3447.68L3178.44 2127ZM3636.84 940.575C3653.41 940.575 3668.61 936.431 3683.8 928.146C3697.6 919.858 3708.64 903.284 3716.93 877.041L3808.06 569.04C3821.87 523.462 3803.9 499.983 3755.58 499.983H3647.9L3518.1 940.575H3636.84Z" fill="#E02041"/>
<path d="M5017.58 233.417C5071.44 233.417 5110.09 252.753 5134.95 291.426C5159.8 330.099 5165.32 374.297 5151.51 422.636L4770.44 1716.79C4749.73 1785.85 4713.83 1831.43 4664.12 1856.29C4614.41 1881.15 4560.57 1892.2 4503.96 1892.2H4095.25C4066.25 1892.2 4040.02 1886.68 4015.16 1877.01C3990.32 1867.34 3970.99 1852.15 3954.41 1832.81C3937.84 1813.47 3928.19 1788.61 3922.67 1760.99C3917.13 1733.37 3919.9 1701.6 3930.93 1665.69L4305.12 395.013C4317.54 346.672 4342.41 306.618 4379.67 277.615C4416.96 248.609 4463.9 233.417 4520.51 233.417H5017.58ZM4658.6 499.983C4642.02 499.983 4629.6 504.126 4622.7 511.031C4614.41 519.318 4610.28 528.986 4606.12 540.036L4300.99 1573.15C4292.7 1600.77 4303.74 1614.59 4332.74 1614.59H4421.12C4450.09 1614.59 4468.05 1600.77 4476.34 1573.15L4780.09 541.417C4787 512.413 4775.96 498.602 4745.57 498.602H4658.6V499.983Z" fill="#E02041"/>
<path d="M630.998 414H853.298C882.294 414 900.243 422.287 908.527 437.479C916.813 452.671 918.194 470.626 912.669 492.725L860.201 672.278C857.44 683.326 850.536 692.996 839.491 701.283C828.445 710.951 811.875 713.712 791.165 713.712C802.211 713.712 810.495 716.475 816.017 720.619C822.923 724.763 827.065 730.287 829.826 737.194C832.588 744.098 833.968 751.005 833.968 759.292C833.968 767.578 832.588 775.865 831.207 782.772L781.5 947.13C775.976 966.466 764.93 981.66 751.124 992.708C737.317 1003.76 715.224 1009.28 688.991 1009.28H455.644L630.998 414ZM653.091 911.22C658.614 911.22 664.137 909.84 668.279 908.457C672.421 905.696 676.563 900.17 679.324 891.885L715.224 771.721C717.985 763.436 717.985 757.91 715.224 752.386C712.463 746.861 706.94 745.479 698.656 745.479H659.995L610.288 912.601H653.091V911.22ZM720.747 665.371C729.031 665.371 735.936 663.991 740.078 661.228C744.22 658.467 748.362 652.942 751.124 643.272L782.881 535.542C785.642 527.255 785.642 521.731 784.262 517.587C781.5 513.443 775.976 510.68 767.692 510.68H727.65L682.086 665.371H720.747Z" fill="#41414D"/>
<path d="M978.941 414H1213.67L1181.91 521.731H1071.45L1032.79 652.942H1140.49L1108.73 759.292H1001.03L959.61 897.409H1074.21L1032.79 1010.66H803.587L978.941 414Z" fill="#41414D"/>
<path d="M381.085 1114.25L349.328 1221.98H265.102L122.886 1709.54H0L144.978 1220.6H59.3718L91.1288 1112.87H381.085V1114.25Z" fill="#41414D"/>
<path d="M548.156 1709.54H425.271L498.449 1458.16H436.317L361.756 1709.54H238.87L414.224 1114.25H537.11L468.074 1353.2H530.207L600.625 1114.25H723.51L548.156 1709.54Z" fill="#41414D"/>
<path d="M762.171 1114.25H996.896L965.138 1221.98H854.68L816.019 1353.2H923.716L891.96 1459.55H784.261L742.839 1597.66H857.441L816.019 1710.92H586.816L762.171 1114.25Z" fill="#41414D"/>
</svg>
